<?xml version="1.0" encoding="UTF-8"?>
<!DOCTYPE svg PUBLIC "-//W3C//DTD SVG 1.1//EN" "http://www.w3.org/Graphics/SVG/1.1/DTD/svg11.dtd">
<!-- Creator: CorelDRAW X8 -->
<svg xmlns="http://www.w3.org/2000/svg" xml:space="preserve" width="114.7mm" height="34.7mm" version="1.1" style="shape-rendering:geometricPrecision; text-rendering:geometricPrecision; image-rendering:optimizeQuality; fill-rule:evenodd; clip-rule:evenodd"
viewBox="0 0 904 273"
 xmlns:xlink="http://www.w3.org/1999/xlink">
 <defs>
  <style type="text/css">
   <![CDATA[
    .fil1 {fill:#7E2E44}
    .fil0 {fill:#44242D}
   ]]>
  </style>
 </defs>
 <g id="Слой_x0020_1">
  <metadata id="CorelCorpID_0Corel-Layer"/>
  <g id="_1821932096304">
   <path class="fil0" d="M177 104l1 2c-7,6 -15,14 -23,25 -9,11 -16,22 -20,31l-4 3c-3,2 -5,4 -6,5 -1,-2 -2,-5 -3,-8l-1 -3c-2,-5 -4,-8 -6,-11 -2,-2 -4,-3 -6,-4 4,-4 7,-6 10,-6 3,0 5,4 9,11l1 3c6,-9 13,-19 22,-28 9,-8 17,-15 26,-20zm-40 -54c48,0 86,39 86,87 0,48 -38,86 -86,86 -48,0 -87,-38 -87,-86 0,-48 39,-87 87,-87zm0 -14c55,0 101,45 101,101 0,55 -46,101 -101,101 -56,0 -101,-46 -101,-101 0,-56 45,-101 101,-101zm0 -2c56,0 102,46 102,103 0,56 -46,102 -102,102 -57,0 -103,-46 -103,-102 0,-57 46,-103 103,-103zm0 -34c75,0 136,61 136,137 0,75 -61,136 -136,136 -76,0 -137,-61 -137,-136 0,-76 61,-137 137,-137z"/>
   <path class="fil1" d="M767 0c76,0 137,61 137,137 0,75 -61,136 -137,136 -75,0 -137,-61 -137,-136 0,-76 62,-137 137,-137zm0 3c74,0 134,60 134,134 0,74 -60,134 -134,134 -74,0 -134,-60 -134,-134 0,-74 60,-134 134,-134zm0 31c57,0 103,46 103,103 0,56 -46,102 -103,102 -56,0 -102,-46 -102,-102 0,-57 46,-103 102,-103zm0 2c56,0 101,45 101,101 0,55 -45,101 -101,101 -56,0 -101,-46 -101,-101 0,-56 45,-101 101,-101zm0 14c48,0 87,39 87,87 0,48 -39,86 -87,86 -48,0 -87,-38 -87,-86 0,-48 39,-87 87,-87zm40 54l2 2c-7,6 -15,14 -24,25 -9,11 -15,22 -20,31l-4 3c-3,2 -5,4 -6,5 0,-2 -1,-5 -3,-8l-1 -3c-2,-5 -4,-8 -6,-11 -1,-2 -3,-3 -5,-4 3,-4 6,-6 9,-6 3,0 6,4 9,11l2 3c5,-9 12,-19 21,-28 9,-8 18,-15 26,-20z"/>
   <path class="fil1" d="M492 104l2 2c-8,6 -15,14 -24,25 -9,11 -16,22 -20,31l-4 3c-3,2 -5,4 -6,5 0,-2 -1,-5 -3,-8l-1 -3c-2,-5 -4,-8 -6,-11 -2,-2 -3,-3 -6,-4 4,-4 7,-6 10,-6 3,0 6,4 9,11l1 3c6,-9 13,-19 22,-28 9,-8 17,-15 26,-20zm-40 -54c48,0 87,39 87,87 0,48 -39,86 -87,86 -48,0 -87,-38 -87,-86 0,-48 39,-87 87,-87zm0 -16c56,0 102,46 102,103 0,56 -46,102 -102,102 -57,0 -103,-46 -103,-102 0,-57 46,-103 103,-103zm0 -31c74,0 134,60 134,134 0,74 -60,134 -134,134 -74,0 -134,-60 -134,-134 0,-74 60,-134 134,-134zm0 -3c75,0 137,61 137,137 0,75 -62,136 -137,136 -76,0 -137,-61 -137,-136 0,-76 61,-137 137,-137z"/>
  </g>
 </g>
</svg>
