<?xml version="1.0" encoding="UTF-8"?>
<!DOCTYPE svg PUBLIC "-//W3C//DTD SVG 1.1//EN" "http://www.w3.org/Graphics/SVG/1.1/DTD/svg11.dtd">
<!-- Creator: CorelDRAW X8 -->
<svg xmlns="http://www.w3.org/2000/svg" xml:space="preserve" width="1942px" height="1240px" version="1.1" style="shape-rendering:geometricPrecision; text-rendering:geometricPrecision; image-rendering:optimizeQuality; fill-rule:evenodd; clip-rule:evenodd"
viewBox="0 0 1818 1161"
 xmlns:xlink="http://www.w3.org/1999/xlink">
 <defs>
  <style type="text/css">
   <![CDATA[
    .fil0 {fill:#7B213C}
   ]]>
  </style>
 </defs>
 <g id="Слой_x0020_1">
  <metadata id="CorelCorpID_0Corel-Layer"/>
  <path class="fil0" d="M928 62c286,0 518,232 518,518 0,287 -232,519 -518,519 -287,0 -519,-232 -519,-519 0,-286 232,-518 519,-518zm0 4c284,0 514,230 514,514 0,284 -230,514 -514,514 -284,0 -514,-230 -514,-514 0,-284 230,-514 514,-514zm0 -66c318,0 577,257 580,575l0 0 304 0c3,0 6,2 6,5 0,3 -3,6 -6,6l-304 0 0 0c-3,318 -262,575 -580,575 -319,0 -578,-257 -581,-575l0 0 -303 0c-3,9 -12,17 -22,17 -12,0 -22,-10 -22,-23 0,-12 10,-22 22,-22 10,0 19,7 22,17l303 0 0 0c3,-318 262,-575 581,-575zm0 11c314,0 569,255 569,569 0,315 -255,570 -569,570 -315,0 -570,-255 -570,-570 0,-314 255,-569 570,-569zm0 111c253,0 459,205 459,458 0,254 -206,459 -459,459 -254,0 -459,-205 -459,-459 0,-253 205,-458 459,-458z"/>
 </g>
</svg>
