<?xml version="1.0" encoding="UTF-8"?>
<!DOCTYPE svg PUBLIC "-//W3C//DTD SVG 1.1//EN" "http://www.w3.org/Graphics/SVG/1.1/DTD/svg11.dtd">
<!-- Creator: CorelDRAW X8 -->
<svg xmlns="http://www.w3.org/2000/svg" xml:space="preserve" width="474px" height="189px" version="1.1" style="shape-rendering:geometricPrecision; text-rendering:geometricPrecision; image-rendering:optimizeQuality; fill-rule:evenodd; clip-rule:evenodd"
viewBox="0 0 425 170"
 xmlns:xlink="http://www.w3.org/1999/xlink">
 <defs>
  <style type="text/css">
   <![CDATA[
    .fil1 {fill:#7E2E44}
    .fil0 {fill:#7E2E44;fill-rule:nonzero}
   ]]>
  </style>
 </defs>
 <g id="Слой_x0020_1">
  <metadata id="CorelCorpID_0Corel-Layer"/>
  <path class="fil0" d="M276 101c11,0 27,-5 39,-8 17,-6 37,-4 60,-5 -1,11 -11,23 -17,32 18,-6 25,-26 66,-35l1 0 -1 0c-41,-9 -48,-29 -66,-36 6,9 16,22 17,32 -23,0 -43,1 -60,-4 -12,-4 -28,-8 -39,-9 22,13 22,20 0,33z"/>
  <path class="fil1" d="M118 58l1 2c-6,4 -12,11 -19,20 -8,9 -13,18 -17,26l-3 2c-2,2 -4,3 -5,4 0,-1 -1,-3 -2,-6l-2 -3c-1,-4 -3,-7 -4,-9 -2,-1 -3,-3 -5,-3 3,-3 6,-5 8,-5 2,0 5,3 7,9l2 3c4,-8 10,-16 17,-23 8,-8 15,-13 22,-17zm-33 -45c39,0 72,32 72,72 0,39 -33,72 -72,72 -40,0 -72,-33 -72,-72 0,-40 32,-72 72,-72zm0 -12c46,0 83,38 83,84 0,46 -37,83 -83,83 -46,0 -84,-37 -84,-83 0,-46 38,-84 84,-84zm0 -1c47,0 85,38 85,85 0,47 -38,85 -85,85 -47,0 -85,-38 -85,-85 0,-47 38,-85 85,-85z"/>
 </g>
</svg>
