<?xml version="1.0" encoding="UTF-8"?>
<!DOCTYPE svg PUBLIC "-//W3C//DTD SVG 1.1//EN" "http://www.w3.org/Graphics/SVG/1.1/DTD/svg11.dtd">
<!-- Creator: CorelDRAW X8 -->
<svg xmlns="http://www.w3.org/2000/svg" xml:space="preserve" width="1055px" height="1471px" version="1.1" style="shape-rendering:geometricPrecision; text-rendering:geometricPrecision; image-rendering:optimizeQuality; fill-rule:evenodd; clip-rule:evenodd"
viewBox="0 0 1055 1471"
 xmlns:xlink="http://www.w3.org/1999/xlink">
 <defs>
  <style type="text/css">
   <![CDATA[
    .fil0 {fill:#1F1B20}
    .fil1 {fill:#661429}
   ]]>
  </style>
 </defs>
 <g id="Слой_x0020_1">
  <metadata id="CorelCorpID_0Corel-Layer"/>
  <g id="_2166935245936">
   <path class="fil0" d="M278 1224c0,0 0,0 0,1 0,67 0,135 0,203 0,0 0,1 0,1 1,1 1,1 1,1 4,2 14,2 18,2l10 0 0 11 -70 0 0 -11 11 0c3,0 14,0 18,-2 0,0 0,-1 0,-1 0,0 0,-1 0,-1l0 -204c0,-2 0,-5 -1,-7 -1,-2 -2,-3 -4,-4 -5,-2 -14,-2 -19,-2l-7 0 0 -11 40 0c1,0 3,0 4,1 0,1 1,1 1,2l134 215 0 -203c0,0 0,-1 0,-1 0,0 -1,-1 -1,-1 -4,-2 -13,-2 -17,-2l-11 0 0 -11 67 0 0 11 -7 0c-4,0 -15,0 -18,3 0,0 0,0 -1,0 0,0 0,1 0,1l0 228 -7 0c-1,0 -2,0 -3,0l0 0 0 0c-1,-1 -2,-2 -3,-3l0 0 -135 -216zm-94 -11c-1,0 -1,1 -1,1 0,0 0,1 0,1l0 213c0,0 0,1 0,1 0,1 1,1 1,1 4,2 13,2 18,2l9 0 0 11 -70 0 0 -11 10 0c4,0 15,0 19,-2 0,0 0,-1 0,-1l0 0 0 0c0,0 0,-1 0,-1l0 -213c0,0 0,-1 0,-1l0 0 0 0c0,-1 -1,-1 -1,-1 -4,-2 -13,-2 -18,-2l-10 0 0 -11 70 0 0 11 -9 0c-4,0 -15,0 -18,2l0 0zm339 199c0,20 -3,39 -5,59 -2,-20 -5,-39 -5,-59 -1,-63 -1,-126 0,-189 0,-20 3,-39 5,-59 2,20 5,39 5,59 1,63 1,126 0,189zm139 -282c0,0 -282,-288 50,-591 280,-251 209,-482 209,-482 0,0 131,268 45,364 0,0 -18,26 2,47l84 126 3 13c0,0 -1,8 -3,11 -1,4 -13,9 -13,9l-18 0c0,0 -20,6 -29,25 -5,12 -7,23 -3,27 3,4 14,6 14,6l10 6 6 8c0,0 2,7 -1,14 -3,6 -9,9 -13,10 -5,0 -7,-4 -11,0 -3,3 -1,10 -1,10l12 6c0,0 7,5 8,11 1,7 2,8 0,15 -2,6 -3,4 -7,8 -4,4 -10,5 -10,5 0,0 -45,0 -32,58 0,0 39,136 -132,61 0,0 -81,-32 -135,-5 -53,28 -35,238 -35,238zm-247 -989c2,-3 3,-7 5,-10 -5,-1 -10,-1 -16,-1 4,4 8,8 11,11zm108 130c4,-4 12,-4 16,0 3,4 3,11 0,15 -5,4 -11,4 -15,0 -4,-4 -4,-11 -1,-15zm-85 -240c-3,-2 -6,-5 -9,-7 -22,-15 -51,-6 -59,20 -9,26 6,57 32,68 22,9 45,-2 51,-25 6,-21 -1,-39 -15,-56zm160 476c-6,-15 -12,-29 -17,-44 -14,-37 -28,-73 -42,-109 -8,-21 -17,-42 -24,-63 -5,-14 -8,-29 -12,-43 -2,-7 -5,-15 -9,-22 -5,-12 -15,-20 -26,-25 -3,-1 -6,-2 -8,-3 -22,-6 -36,-20 -48,-38 -7,-12 -14,-24 -26,-31 -4,-3 -9,-4 -14,-5 -5,-1 -10,2 -12,7 -3,5 -3,9 1,15 0,-3 0,-4 0,-6 1,-5 6,-9 12,-9 6,1 10,5 10,11 0,7 -5,14 -12,16 -7,2 -15,-2 -19,-10 -7,-14 3,-32 19,-32 3,0 5,0 9,0 -3,-3 -5,-5 -7,-7 -17,-19 -24,-42 -19,-67 8,-36 43,-52 76,-35 31,16 47,56 36,89 -3,7 -7,13 -10,19 5,4 11,8 16,13 8,9 8,21 10,33 0,2 0,5 1,7 2,6 6,7 11,4 4,4 4,9 0,12 -5,5 -11,3 -17,-4 -2,3 -4,5 -6,8 -13,-13 -13,-26 -5,-40 2,-3 3,-7 5,-10 -1,0 -2,-1 -3,-1 -1,2 -3,4 -4,6 -2,5 -3,11 -6,16 -5,8 -13,10 -18,5 -4,-3 -5,-7 -4,-11 1,-5 4,-9 9,-8 4,0 7,2 11,4 4,-4 3,-12 -1,-17 -4,-5 -12,-6 -18,-3 -11,6 -15,20 -9,33 4,10 12,16 22,21 10,4 21,8 32,13 14,6 26,16 34,29 9,14 19,27 28,41 11,18 15,38 20,58 8,27 15,54 21,81 7,31 12,63 18,94 0,4 1,8 -5,8z"/>
   <path class="fil1" d="M462 506c-6,0 -5,-4 -5,-8 4,-20 6,-41 11,-61 12,-49 26,-97 39,-146 0,-1 1,-2 1,-4 3,6 5,12 7,17 4,10 8,20 11,30 1,3 1,8 0,11 -21,53 -42,105 -63,158 0,1 0,2 -1,3zm148 -389c-8,-9 -13,-19 -15,-30 -6,-38 22,-79 58,-85 23,-4 44,8 54,30 10,27 3,61 -19,81 -1,1 -2,3 -4,4 3,0 5,0 8,0 9,0 17,5 20,14 4,9 1,19 -6,25 -5,4 -10,5 -16,3 -6,-3 -9,-8 -9,-15 -1,-6 4,-10 10,-11 6,0 10,3 11,10 0,1 0,2 0,5 4,-5 5,-9 2,-13 -2,-4 -5,-8 -9,-9 -9,-2 -17,2 -23,9 -9,10 -17,21 -25,32 -10,15 -23,25 -39,30 -11,4 -21,8 -30,16 -9,9 -15,21 -18,34 -3,8 -5,17 -7,26 -6,-10 -12,-20 -18,-29 0,-1 0,-3 0,-3 11,-15 20,-32 37,-40 11,-5 23,-10 34,-14 10,-4 19,-9 26,-18 7,-9 8,-22 2,-32 -5,-8 -15,-11 -22,-7 -7,4 -9,13 -5,20 4,-2 8,-4 12,-4 3,0 6,4 8,7 2,5 0,10 -4,13 -4,2 -8,2 -13,-1 -5,-5 -8,-11 -10,-18 -1,-4 -2,-7 -4,-10 -1,1 -2,1 -3,1 1,3 2,6 3,8 1,4 4,8 5,12 4,9 3,18 -4,25 -2,2 -2,3 -4,6 -2,-3 -5,-5 -6,-8 -7,7 -13,8 -17,4 -4,-4 -5,-9 -1,-13 6,4 10,2 11,-5 2,-6 2,-13 3,-19 3,-15 11,-26 27,-31zm19 -87c-14,14 -21,30 -20,46 1,31 28,49 56,36 25,-11 38,-43 29,-69 -6,-17 -21,-26 -38,-25 -12,1 -21,6 -27,12zm19 112c4,-4 7,-7 12,-11 -4,0 -6,1 -9,0 -2,0 -5,0 -8,-1 2,6 3,9 5,12zm-255 988c0,0 282,-288 -50,-591 -280,-251 -209,-482 -209,-482 0,0 -131,268 -44,364 0,0 17,26 -3,47l-84 126 -3 13c0,0 1,8 3,11 1,4 13,9 13,9l18 0c0,0 20,6 29,25 5,12 7,23 3,27 -3,4 -14,6 -14,6l-10 6 -6 8c0,0 -2,7 1,14 3,6 9,9 13,10 5,0 7,-4 11,0 3,3 1,10 1,10l-12 6c0,0 -7,5 -8,11 -1,7 -2,8 0,15 2,6 3,4 7,8 4,4 10,5 10,5 0,0 45,0 32,58 0,0 -39,136 132,61 0,0 81,-32 135,-5 53,28 35,238 35,238zm544 210l-48 -133c0,-1 0,-2 -1,-3l-48 136 97 0zm-162 -36c0,-28 -7,-57 -25,-79 -17,-20 -39,-31 -65,-31 -26,0 -48,11 -65,31 -18,22 -26,51 -26,79 0,28 8,58 26,80 17,20 39,31 65,31 26,0 48,-11 65,-31 18,-22 25,-52 25,-80zm107 -118c1,-2 3,-3 5,-3l5 0c1,0 2,0 3,2 2,1 5,14 6,18l72 202c2,3 3,6 6,8 2,1 7,2 11,2l10 0 0 11 -69 0 0 -11 20 0c3,0 7,0 10,-1 0,0 1,0 2,0 0,-2 -1,-4 -2,-6l-20 -56 -106 0 -21 59c0,0 0,1 0,1 0,1 0,1 0,1 0,0 1,0 2,1 4,1 11,1 16,1l11 0 0 11 -62 0 0 -11 6 0c3,0 9,-1 12,-2 2,-2 3,-4 4,-7l79 -220 0 0zm-300 118c0,-31 8,-63 29,-87 18,-23 45,-35 74,-35 29,0 55,12 74,35 20,24 29,56 29,87 0,31 -9,63 -29,88 -19,22 -45,35 -74,35 -29,0 -56,-13 -74,-35 -21,-25 -29,-57 -29,-88z"/>
  </g>
 </g>
</svg>
